<?xml version="1.0" encoding="UTF-8"?>
<svg width="2303px" height="1927px" viewBox="0 0 2303 1927" version="1.1" xmlns="http://www.w3.org/2000/svg" xmlns:xlink="http://www.w3.org/1999/xlink">
    <!-- Generator: Sketch 42 (36781) - http://www.bohemiancoding.com/sketch -->
    <title>logos-colour-square</title>
    <desc>Created with Sketch.</desc>
    <defs></defs>
    <g id="Page-1" stroke="none" stroke-width="1" fill="none" fill-rule="evenodd">
        <g id="logos-colour-square">
            <g id="ARM" transform="translate(641.000000, 708.000000)">
                <path d="M0.706100421,508.203156 L140.399106,508.203156 L174.368151,417.970584 L406.134232,417.970584 L441.193207,508.203156 L583.972551,508.203156 L359.687431,4.27580373 C359.237273,3.2643808 357.985757,2.44446051 356.865582,2.44446051 L206.62447,2.44446051 C205.516163,2.44446051 204.280047,3.28194534 203.869178,4.30101789 L0.706100421,508.203156 Z" id="Path-8" fill="#535A6C"></path>
                <path d="M286.097274,132.99144 C285.670059,131.972004 284.999946,131.980437 284.601933,133.006668 L211.795976,320.728457 L364.772223,320.728457 L286.097274,132.99144 Z" id="Path" fill="#FFFFFF"></path>
                <path d="M614.805598,0.696753311 C613.704897,0.691512505 612.812602,1.58085457 612.812602,2.68120994 L612.812602,506.693623 C612.812602,507.794849 613.703645,508.687569 614.810652,508.687569 L744.802368,508.687569 C745.90586,508.687569 746.800417,507.790755 746.800417,506.696715 L746.800417,309.528269 C746.800417,308.428751 747.68668,307.597337 748.805257,307.672966 L800.440039,311.164097 C849.581951,316.703539 918.740822,507.058047 918.740822,507.058047 C919.12174,508.092301 920.320049,508.93073 921.428366,508.93073 L1065.7105,508.93073 C1066.81387,508.93073 1067.35142,508.113068 1066.9078,507.099182 C1066.9078,507.099182 989.95758,330.356611 963.089384,302.110239 C936.221188,273.863866 937.251176,278.136053 933.357131,273.668977 C1027.97271,242.15801 1074.56303,59.2016708 898.018435,2.04522418 L614.805598,0.696753311 Z" id="Path-9" fill="#535A6C"></path>
                <path d="M746.359997,99.253179 L746.359997,207.607309 L839.095251,207.607309 C888.539677,207.607309 896.536537,99.253179 839.095251,99.253179 L746.359997,99.253179 Z" id="Path" fill="#FFFFFF"></path>
                <path d="M1101.90404,508.631616 C1101.90467,509.735686 1102.80569,510.630711 1103.91069,510.630711 L1232.63416,510.630711 C1233.74177,510.630711 1234.63967,509.731935 1234.63967,508.629978 L1234.63967,199.321952 C1234.63967,198.216978 1235.22626,198.006181 1235.94231,198.842309 L1371.64761,357.304921 C1372.36704,358.144995 1373.83684,358.82601 1374.94742,358.82601 L1391.58643,358.82601 C1392.68943,358.82601 1394.15677,358.141048 1394.86714,357.292152 L1527.44841,198.855078 C1528.15729,198.007951 1528.73195,198.219995 1528.73195,199.321952 L1528.73195,508.629978 C1528.73195,509.734952 1529.61811,510.630711 1530.73215,510.630711 L1659.98477,510.630711 C1661.08945,510.630711 1661.98497,509.732601 1661.98497,508.62668 L1661.98497,2.06506198 C1661.98497,0.958266233 1661.08313,0.061031005 1659.99209,0.061031005 L1547.75116,0.061031005 C1546.65053,0.061031005 1545.16606,0.741690168 1544.44178,1.57413632 L1383.52198,186.524317 C1382.79489,187.359982 1381.61593,187.361318 1380.89491,186.534441 L1220.70281,2.82167828 C1219.97901,1.99160434 1218.49525,1.31869646 1217.39744,1.31869646 L1103.61036,1.31869646 C1102.50865,1.31869646 1101.61605,2.21459438 1101.61668,3.31779099 L1101.90404,508.631616 Z" id="Path-10" fill="#535A6C"></path>
            </g>
            <g id="JavaScript" transform="translate(1551.000000, 0.000000)" fill="#FFD758">
                <path d="M86.8077631,365.250483 C86.8077631,365.250483 108.093777,414.405592 151.018932,417.918676 C151.018932,417.918676 205.03936,422.362816 211.622364,377.369713 L211.622364,4.9468599 L322.400982,4.9468599 L322.400982,374.271836 C314.641281,529.688304 137.108321,523.154509 80.4004801,497.313323 C21.8976177,476.660756 0,415.642307 0,415.642307 L86.8077631,365.250483 Z" id="Path-6"></path>
                <path d="M637.860421,134.999297 L723.124948,81.9552566 C723.124948,81.9552566 672.897005,-37.7276796 498.570796,12.1674867 C348.330004,80.7185416 435.499529,228.555796 444.572558,232.394135 C538.4186,316.684431 598.95804,295.090465 637.491613,345.337407 C655.773669,373.191486 639.097136,420.930776 566.408988,419.257755 C502.746924,419.257755 467.063023,357.04976 467.063023,357.04976 L377.198068,406.635914 C377.198068,406.635914 429.000481,521.755363 586.175462,509.423012 C762.780275,509.423012 751.032468,367.797893 751.032468,367.797893 C760.257566,255.173771 626.352491,212.645891 626.352491,212.645891 C565.51591,192.028122 527.798139,170.035428 521.16626,146.670171 C505.861433,92.7486242 589.961323,62.3684691 637.860421,134.999297 Z" id="Path-7"></path>
            </g>
            <g id="Python" transform="translate(1749.000000, 1415.000000)">
                <path d="M392.048197,38.6377745 L392.773992,200.485573 C392.048197,241.899854 333.219245,242.707693 333.219245,242.707693 L238.263317,243.310322 C122.645768,256.576173 138.56799,353.395201 138.56799,377.859513 L57.3846441,377.859513 C12.7417237,377.859513 0.560516385,300.028165 0.560516385,300.028165 L1.9709847,225.880358 C1.9709847,225.880358 13.0199335,156.651978 63.4900961,156.651978 L300.217837,156.651978 L300.217837,131.181074 L161.959742,131.181074 L161.959742,45.6531421 C179.935823,-25.2717398 384.957404,-1.94514098 392.048197,38.6377745 Z" id="Path-5" fill="#ED5295"></path>
                <circle id="Oval" fill="#FFFFFF" cx="207.338843" cy="67.7024793" r="21.1570248"></circle>
                <path d="M552.841586,172.632265 L553.56738,316.143976 C552.841586,357.558256 494.012634,376.702183 494.012634,376.702183 L399.056705,377.304812 C287.077344,376.702183 299.361378,455.163594 299.361378,511.854004 L218.178032,509.033067 C173.535112,509.033067 161.353905,434.022656 161.353905,434.022656 L162.764373,359.874848 C162.764373,359.874848 173.813322,290.646468 224.283484,290.646468 L461.011226,290.646468 L461.011226,265.175564 L322.753131,265.175564 L322.753131,179.647632 C340.729211,108.722751 545.750792,132.049349 552.841586,172.632265 Z" id="Path-5-Copy" fill="#ED5295" transform="translate(357.460643, 322.979236) scale(-1, -1) translate(-357.460643, -322.979236) "></path>
                <ellipse id="Oval-Copy" fill="#FFFFFF" transform="translate(345.564738, 445.707989) scale(-1, -1) translate(-345.564738, -445.707989) " cx="345.564738" cy="445.707989" rx="21.1570248" ry="21.1570248"></ellipse>
            </g>
            <g id="REST-API" transform="translate(0.000000, 1416.000000)" fill="#535A6C">
                <path d="M22.8992783,3.9591623 L117.758514,3.9591623 C144.250865,3.9591623 164.573826,9.91199632 178.728005,21.8178429 C192.882185,33.7236895 199.959168,50.5144187 199.959168,72.190534 C199.959168,90.6632826 193.870292,105.798964 181.692356,117.598031 C169.514421,129.397099 152.689893,136.310929 131.21827,138.339728 L200.279639,228.193717 L146.120143,228.193717 L80.7441836,138.980398 L67.6048976,138.980398 L67.6048976,228.193717 L22.8992783,228.193717 L22.8992783,3.9591623 Z M116.957338,45.1222199 L67.6048976,45.1222199 L67.6048976,100.059686 L116.957338,100.059686 C141.633681,100.059686 153.971668,90.7700615 153.971668,72.190534 C153.971668,54.144901 141.633681,45.1222199 116.957338,45.1222199 Z M408.425157,187.190827 L408.425157,228.193717 L240.819143,228.193717 L240.819143,3.9591623 L407.143275,3.9591623 L407.143275,44.9620524 L285.524762,44.9620524 L285.524762,94.6139895 L401.535043,94.6139895 L401.535043,135.61688 L285.524762,135.61688 L285.524762,187.190827 L408.425157,187.190827 Z M627.626903,23.9801047 L606.475858,60.4983037 C585.96565,47.7916153 564.761405,41.4383665 542.862485,41.4383665 C530.043606,41.4383665 519.681833,43.8408556 511.776857,48.6459058 C503.871882,53.450956 499.919453,60.0177594 499.919453,68.3465131 C499.919453,72.2973321 500.987677,75.7142055 503.124157,78.5972356 C505.260637,81.4802657 508.625542,83.9094491 513.218974,85.8848586 C517.812406,87.8602682 522.539297,89.4352332 527.399789,90.609801 C532.260281,91.7843689 538.536096,93.0123077 546.227424,94.2936545 L558.886005,96.3758325 C606.529507,104.170692 630.350902,125.099041 630.350902,159.161508 C630.350902,171.120744 627.840575,181.851862 622.819847,191.355183 C617.799119,200.858505 611.015897,208.519775 602.469978,214.339225 C593.924058,220.158675 584.20322,224.589932 573.307172,227.633131 C562.411124,230.676329 550.820895,232.197906 538.536135,232.197906 C521.016999,232.197906 503.791888,229.661945 486.860285,224.589948 C469.928681,219.51795 455.641186,212.283789 443.99737,202.887246 L467.231473,166.84955 C475.991041,173.790178 486.673281,179.556152 499.278512,184.147644 C511.883744,188.739136 525.022898,191.034848 538.69637,191.034848 C551.51525,191.034848 562.063961,188.632359 570.342821,183.827309 C578.621681,179.022259 582.761049,172.402067 582.761049,163.966534 C582.761049,156.59879 579.022265,151.046371 571.544585,147.30911 C564.066905,143.571849 551.942563,140.36853 535.171196,137.699058 L520.910264,135.456712 C475.296417,128.302526 452.489835,106.893679 452.489835,71.2295288 C452.489835,59.9109661 454.893339,49.6603461 459.700419,40.4773613 C464.507499,31.2943764 471.050371,23.819966 479.32923,18.0539058 C487.60809,12.2878455 497.088578,7.85658791 507.770978,4.76 C518.453377,1.66341209 529.829962,0.115141361 541.901074,0.115141361 C557.711026,0.115141361 572.452516,2.01043829 586.125988,5.80108901 C599.799459,9.59173972 613.63296,15.651351 627.626903,23.9801047 Z M834.49054,3.9591623 L834.49054,45.7628901 L764.948465,45.7628901 L764.948465,228.193717 L720.242846,228.193717 L720.242846,45.7628901 L650.700771,45.7628901 L650.700771,3.9591623 L834.49054,3.9591623 Z M142.594969,286.765445 L229.92315,511 L182.173062,511 L162.624368,458.785382 L66.9639569,458.785382 L47.4152631,511 L0.786821429,511 L88.1150026,286.765445 L142.594969,286.765445 Z M114.87428,330.971686 L82.3465355,417.622325 L147.241789,417.622325 L114.87428,330.971686 Z M350.580252,428.99422 L303.471104,428.99422 L303.471104,511 L258.765485,511 L258.765485,286.765445 L350.259781,286.765445 C376.645308,286.765445 396.914858,293.118694 411.069038,305.825382 C425.223217,318.532071 432.300201,335.936769 432.300201,358.04 C432.300201,379.929673 425.223217,397.227594 411.069038,409.934283 C396.914858,422.640971 376.752131,428.99422 350.580252,428.99422 Z M349.458605,327.928503 L303.471104,327.928503 L303.471104,388.151497 L349.458605,388.151497 C374.134949,388.151497 386.472935,378.114432 386.472935,358.04 C386.472935,337.965568 374.134949,327.928503 349.458605,327.928503 Z M515.141797,286.765445 L515.141797,511 L470.436177,511 L470.436177,286.765445 L515.141797,286.765445 Z"></path>
            </g>
            <g id="Windows" transform="translate(0.000000, 708.000000)" fill="#872829">
                <polygon id="Path-4" points="0.205036655 272.674231 0.205036655 440.877193 211.256102 467.770418 211.256102 273.392485"></polygon>
                <polygon id="Path-4-Copy" points="0.205036655 73.8654092 0.205036655 236.21556 211.256102 236.21556 211.256102 45.6328722"></polygon>
                <polygon id="Path-4-Copy-2" points="250.548237 41.0174358 250.548237 236.468102 531.584769 236.468102 531.584769 0"></polygon>
                <polygon id="Path-4-Copy-3" points="248.606271 275.102788 248.606271 473.074528 532.007124 511.334753 532.007124 275.102788"></polygon>
            </g>
            <g id="Amazon_Alexa_logo" transform="translate(1019.000000, 1415.000000)" fill-rule="nonzero" fill="#2C4ACA">
                <g id="logo" transform="translate(255.500000, 256.000000) scale(1, -1) translate(-255.500000, -256.000000) ">
                    <path d="M215.687899,4.04735017 L215.687899,54.6604646 C215.687899,72.6574489 204.674543,88.708311 187.96489,95.7961706 C125.434877,122.332863 81.6683315,184.468879 81.6683315,256.165672 C81.6683315,351.734725 159.416331,430.286824 255.706447,430.286824 C351.996564,430.286824 429.745337,351.734725 429.745337,256.165672 C429.745337,143.404669 342.554333,36.7845323 215.687899,4.04735017 L215.687899,4.04735017 Z M255.706447,511.5 C114.500723,511.5 0.483720844,396.309699 0.483720844,256.165672 C0.483720844,116.011063 114.500723,0.821020295 255.706447,0.821020295 C396.914236,0.821020295 510.930464,116.011063 510.930464,256.165672 C510.930464,396.309699 396.914236,511.5 255.706447,511.5 L255.706447,511.5 Z" id="path26-5"></path>
                </g>
            </g>
            <g id="Apple" fill="#2C4ACA">
                <path d="M217.236507,117.227252 C217.236507,117.227252 208.03571,75.9472309 245.483346,38.2772905 C282.930982,0.607350006 321.243004,0.607350006 321.243004,0.607350006 C321.243004,0.607350006 328.978721,43.0178119 292.642607,83.5445994 C256.306492,124.071387 217.236507,117.227252 217.236507,117.227252 Z" id="Path"></path>
                <path d="M116.76009,508.613881 C109.294427,507.958838 57.1771706,478.238362 19.0541163,383.63164 C-0.373816613,329.918899 -1.72848448,289.671391 3.11357411,245.463823 C7.95563271,201.256256 24.4178465,166.042776 77.0961816,138.020272 C141.692125,104.609793 196.907883,148.132531 222.481933,146.595011 C246.419045,142.106062 286.584361,122.044946 315.019418,123.470247 C379.911096,123.470247 397.891582,148.645024 419.964278,174.450243 C377.971688,208.694278 361.638321,231.01213 364.926561,284.808938 C368.214801,338.605747 409.741317,364.847322 431.273495,375.091473 C436.338938,389.981402 378.36914,494.482152 340.105769,508.904224 C331.06294,512.254538 306.665441,513.861403 284.335112,507.569354 C262.004783,501.277304 251.969729,494.391675 224.699922,494.482152 C197.430114,494.572629 166.944449,507.958838 166.944449,507.958838 C166.944449,507.958838 153.718157,515.146471 116.76009,508.613881 Z" id="Path"></path>
            </g>
            <g id="Android" transform="translate(835.000000, 0.000000)">
                <path d="M0.28315011,196.713315 L0.28315011,360.489489 C0.28315011,360.489489 8.16859647,384.358678 32.5880908,384.358678 C57.007585,384.358678 64.8930314,360.489489 64.8930314,360.489489 L64.8930314,196.713315 C64.8930314,196.713315 56.409683,173.497267 32.5880908,173.497267 C8.76649856,173.497267 0.28315011,196.713315 0.28315011,196.713315 Z" id="Path" fill="#F38C21"></path>
                <path d="M380.273512,196.713315 L380.273512,360.489489 C380.273512,360.489489 388.158958,384.358678 412.578452,384.358678 C436.997946,384.358678 444.883393,360.489489 444.883393,360.489489 L444.883393,196.713315 C444.883393,196.713315 436.400044,173.497267 412.578452,173.497267 C388.75686,173.497267 380.273512,196.713315 380.273512,196.713315 Z" id="Path" fill="#F38C21"></path>
                <path d="M89.4607422,172.901657 L356.106527,172.901657 C356.106527,172.901657 356.106527,302.010015 356.106527,393.948955 C356.106527,406.928335 311.098467,406.928335 311.098467,406.928335 L311.098467,485.987734 C311.098467,485.987734 302.519945,511.936256 279.591624,511.936256 C256.663303,511.936256 246.193766,488.44956 246.193766,488.44956 L246.193766,406.928335 L198.733004,406.928335 L198.733004,483.663209 C198.733004,483.663209 191.842569,511.936256 166.897256,511.936256 C141.951943,511.936256 133.59479,483.663209 133.59479,483.663209 L133.59479,406.928335 C133.59479,406.928335 89.4607422,406.928335 89.4607422,393.948955 L89.4607422,172.901657 Z" id="Path-2" fill="#F38C21"></path>
                <path d="M89.8334499,150.376721 L356.14291,150.376721 C356.14291,83.1894324 301.899866,50.1639202 301.899866,50.1639202 L331.547469,17.8206508 C331.547469,17.8206508 333.097717,10.2401847 328.427982,6.52014665 C323.758246,2.80010862 317.595349,4.58715118 317.595349,4.58715118 L281.248541,37.7457829 C281.248541,37.7457829 252.400887,23.6466684 222.839032,23.6466684 C193.277176,23.6466684 163.440279,37.7457829 163.440279,37.7457829 L130.132986,3.42711026 C130.132986,3.42711026 119.871156,-3.27156109 112.813195,4.58715118 C105.755234,12.4458634 112.813195,20.7041132 112.813195,20.7041132 L142.854925,50.1639202 C142.854925,50.1639202 89.8334499,86.0633863 89.8334499,150.376721 Z" id="Path-3" fill="#F38C21"></path>
                <polygon id="Path" fill="#FFFFFF" points="268.311289 88.3695929 268.311289 108.33828 289.698735 108.33828 289.698735 88.2480867"></polygon>
                <polygon id="Path" fill="#FFFFFF" points="157.427681 89.3389639 157.427681 108.553693 177.835356 108.553693 177.835356 89.3713875"></polygon>
            </g>
        </g>
    </g>
</svg>